<?xml version="1.0" encoding="utf-8"?>
<!-- Generator: Adobe Illustrator 17.0.0, SVG Export Plug-In . SVG Version: 6.00 Build 0)  -->
<!DOCTYPE svg PUBLIC "-//W3C//DTD SVG 1.1//EN" "http://www.w3.org/Graphics/SVG/1.1/DTD/svg11.dtd">
<svg version="1.1" id="Layer_1" xmlns="http://www.w3.org/2000/svg" xmlns:xlink="http://www.w3.org/1999/xlink" x="0px" y="0px"
	 width="56px" height="50px" viewBox="0 0 56 50" enable-background="new 0 0 56 50" xml:space="preserve">
<g>
	<path fill="#5E9732" d="M56,32v18H14.8C6.6,50,0,43.2,0,34.9v-2.7V28V0h41.3C49.5,0,56,6.6,56,14.8V25"/>
	<path fill="#FFFFFF" d="M41.3,2.6L3,2.9v25.5V35c0,6.7,5,12,11.8,12H53V14.8C53,8.1,48,2.6,41.3,2.6z"/>
	<path fill="#1C3F94" d="M41.2,4H4v30.9C4,40.7,9.1,46,14.9,46H52V14.9C52,9.1,47.1,4,41.2,4z"/>
	<path fill="#FFFFFF" d="M22.8,9.5l-0.1,7.1H9V9.4L22.8,9.5z M23.7,27.5c0.8-0.9,1.1-2.6,0.7-4.1C24,21.9,23.2,21,22,20
		c-1.7-1.3-3.3-1.3-3.3-1.3H9c4.1,1.4,5,4.7,5,4.7c1,4.9-4.6,5.6-4.6,5.6H20C22.1,29,23.4,27.8,23.7,27.5z M42.4,29.6
		c2.3-0.5,3.3-1.6,3.6-1.9c0.8-0.8,1.3-2.5,0.9-3.9c-0.4-1.4-1.1-2.3-2.2-3.2c-1.5-1.2-3.2-1.1-3.2-1.1h-9c3.8,1.3,4.6,4.5,4.6,4.5
		s1.4,4.4-4.5,5.6c0,0-0.1,0,0,0c0.5,0.2,1.9,0.9,3.1,2c1,1,1.4,2.6,1.4,2.6c1,4.6-4.6,5.7-4.6,5.7h8.8c3.1,0,4.4-1.7,4.7-2
		c0.8-0.8,1.4-2.4,1.1-3.7c-0.3-1.5-1.1-2.4-1.8-3C44.3,30.3,42.4,29.6,42.4,29.6L42.4,29.6z M25.2,40.6l8.5-31.9l-2-0.1l-8.5,32
		H25.2z"/>
</g>
</svg>
